<?xml version="1.0" standalone="no"?>
<!DOCTYPE svg PUBLIC "-//W3C//DTD SVG 20010904//EN"
 "http://www.w3.org/TR/2001/REC-SVG-20010904/DTD/svg10.dtd">
<svg version="1.0" xmlns="http://www.w3.org/2000/svg"
 width="16.000000pt" height="16.000000pt" viewBox="0 0 16.000000 16.000000"
 preserveAspectRatio="xMidYMid meet">
<metadata>
Created by potrace 1.11, written by Peter Selinger 2001-2013
</metadata>
<g transform="translate(0.000000,16.000000) scale(0.002671,-0.002671)"
fill="#000000" stroke="none">
<path d="M1122 3698 l3 -453 67 -3 67 -3 3 31 3 30 37 -25 c52 -36 150 -59
212 -50 112 14 212 89 258 190 29 65 31 186 5 262 -37 105 -149 194 -263 209
-63 8 -165 -17 -210 -51 -18 -14 -35 -25 -38 -25 -3 0 -6 77 -6 170 l0 170
-70 0 -70 0 2 -452z m439 47 c78 -41 119 -142 98 -243 -31 -150 -210 -211
-326 -109 -97 85 -97 239 1 324 20 18 49 35 64 39 15 3 32 7 37 9 18 7 99 -6
126 -20z"/>
<path d="M2700 3965 l0 -95 -65 0 -65 0 0 -55 0 -55 65 0 65 0 0 -154 c0 -176
10 -246 45 -297 52 -80 192 -108 298 -61 26 11 47 22 47 24 0 15 -40 103 -46
103 -5 -1 -28 -7 -51 -14 -60 -20 -109 -8 -133 32 -18 28 -20 51 -20 200 l0
167 111 0 110 0 -3 53 -3 52 -107 3 -108 3 0 94 0 95 -70 0 -70 0 0 -95z"/>
<path d="M3230 3965 l0 -95 -70 0 -70 0 0 -55 0 -55 70 0 70 0 0 -187 c0 -212
8 -243 73 -300 32 -28 104 -53 156 -53 27 0 114 28 135 43 18 13 18 15 0 66
-14 37 -23 51 -34 47 -97 -33 -134 -32 -169 5 -27 29 -31 61 -31 230 l0 149
110 0 110 0 0 55 0 55 -110 0 -110 0 0 95 0 95 -65 0 -65 0 0 -95z"/>
<path d="M2129 3877 c-131 -37 -214 -128 -238 -263 -24 -132 28 -261 134 -334
127 -88 314 -71 416 37 20 21 44 53 53 71 18 36 21 33 -54 51 -44 10 -44 10
-77 -29 -66 -77 -187 -93 -261 -33 -40 33 -67 72 -77 116 l-7 27 257 0 258 0
-6 58 c-10 89 -34 148 -88 206 -78 86 -202 123 -310 93z m134 -118 c48 -13 92
-53 112 -101 l15 -38 -184 0 -185 0 10 30 c13 37 80 98 116 106 16 3 33 7 38
9 19 6 40 5 78 -6z"/>
<path d="M3889 3877 c-133 -38 -216 -131 -238 -266 -29 -181 70 -335 244 -378
113 -28 231 5 306 84 20 21 44 53 53 71 18 36 21 33 -54 51 -44 10 -44 10 -77
-29 -66 -77 -187 -93 -261 -33 -40 33 -67 72 -77 116 l-7 27 257 0 258 0 -6
58 c-10 89 -34 148 -88 206 -78 86 -202 123 -310 93z m134 -118 c48 -13 92
-53 112 -101 l15 -38 -184 0 -185 0 10 30 c13 37 80 98 116 106 16 3 33 7 38
9 19 6 40 5 78 -6z"/>
<path d="M4755 3873 c-63 -14 -95 -31 -142 -76 l-53 -50 0 62 0 61 -65 0 -65
0 0 -315 0 -315 65 0 65 0 0 108 c1 238 36 332 142 377 21 8 59 15 86 15 l49
0 6 62 c7 77 -8 89 -88 71z"/>
<path d="M3790 2550 l0 -460 65 0 65 0 0 460 0 460 -65 0 -65 0 0 -460z"/>
<path d="M1570 2723 c-261 -91 -283 -437 -35 -558 97 -48 237 -41 317 17 l28
19 0 -42 c0 -57 -32 -118 -76 -149 -28 -19 -53 -25 -105 -28 -81 -5 -144 20
-185 74 l-26 33 -54 -40 c-62 -47 -61 -53 10 -116 65 -57 137 -77 262 -71 116
5 171 25 232 86 70 70 75 95 80 455 l4 317 -71 0 c-70 0 -71 -1 -71 -26 l0
-25 -26 20 c-61 48 -197 65 -284 34z m209 -117 c36 -19 89 -80 97 -112 13 -52
-1 -131 -31 -169 -76 -101 -253 -98 -321 4 -64 97 -32 220 71 274 38 21 146
22 184 3z"/>
<path d="M2400 2724 c-67 -18 -149 -72 -184 -122 -44 -64 -59 -124 -54 -215 7
-133 65 -219 188 -276 46 -22 69 -26 145 -26 77 0 98 4 147 27 120 56 188 164
188 297 0 158 -92 276 -245 316 -72 18 -113 18 -185 -1z m191 -127 c67 -36
101 -90 106 -174 4 -58 1 -74 -19 -113 -14 -25 -44 -58 -67 -75 -38 -27 -51
-30 -116 -30 -65 0 -78 3 -116 30 -64 45 -91 104 -87 187 3 55 9 75 33 109 39
56 103 89 170 89 35 0 66 -8 96 -23z"/>
<path d="M3144 2729 c-49 -14 -125 -69 -161 -117 -46 -60 -67 -138 -61 -226 7
-97 38 -165 104 -225 63 -57 124 -81 208 -81 77 0 119 12 179 50 l47 30 0 -35
0 -35 65 0 65 0 0 315 0 315 -64 0 -65 0 -3 -31 -3 -30 -35 26 c-65 48 -192
69 -276 44z m184 -125 c84 -35 126 -99 126 -194 0 -76 -16 -112 -70 -159 -46
-41 -73 -51 -135 -51 -115 0 -199 89 -199 210 0 152 142 251 278 194z"/>
<path d="M4233 2726 c-99 -31 -148 -100 -141 -198 7 -99 59 -136 243 -174 44
-9 92 -23 107 -30 36 -18 45 -56 24 -90 -23 -34 -60 -46 -129 -42 -61 5 -103
27 -123 67 -17 33 -18 33 -83 20 -66 -13 -70 -18 -47 -73 35 -83 145 -131 285
-124 74 3 95 8 141 35 125 70 136 223 22 300 -18 12 -76 31 -130 43 -53 12
-110 26 -125 32 -36 14 -61 51 -52 77 27 87 205 79 238 -10 9 -23 16 -29 32
-25 11 4 37 9 58 12 21 4 41 13 44 20 14 36 -71 127 -144 154 -62 23 -156 25
-220 6z"/>
</g>
</svg>
