<svg id="Layer_1" data-name="Layer 1" xmlns="http://www.w3.org/2000/svg" viewBox="0 0 24 24"><defs><style>.cls-1{fill:#61707e;}</style></defs><title>Artboard 1</title><path id="clock-o" class="cls-1" d="M13.24,8.1A.31.31,0,0,0,13,8h-.67a.32.32,0,0,0-.33.31V12H9.67a.32.32,0,0,0-.33.31V13a.32.32,0,0,0,.31.33H13a.32.32,0,0,0,.33-.31V8.34A.34.34,0,0,0,13.24,8.1Zm3.66,6.75a5.67,5.67,0,1,1,0-5.69,5.65,5.65,0,0,1,0,5.69ZM18.9,8A8,8,0,0,0,16,5.08a7.95,7.95,0,0,0-8,0A8,8,0,0,0,5.08,8a8,8,0,0,0,0,8A8,8,0,0,0,8,18.92a8,8,0,0,0,8,0A8,8,0,0,0,18.92,16a7.95,7.95,0,0,0,0-8Z"/></svg>