<svg id="Layer_1" data-name="Layer 1" xmlns="http://www.w3.org/2000/svg" viewBox="0 0 500.36 500"><defs><style>.cls-1{fill:#61707e;}</style></defs><title>Artboard 1</title><path class="cls-1" d="M490.54,373.62,419.3,302.38c-12.67-12.65-34.84-12.66-47.49,0L340.13,334c-12.61,12.61-34.87,12.61-47.48,0L166,207.39a33.63,33.63,0,0,1,0-47.49l31.67-31.66a33.63,33.63,0,0,0,0-47.49L126.41,9.48c-12.65-12.64-34.86-12.64-47.5,0L47.27,41.14a5.23,5.23,0,0,1-1.43.88A16.61,16.61,0,0,0,37,51.41c-40.8,42.45-47.94,95.26-21.19,157.1,19.87,45.94,58.62,97.34,118.47,157.18C226,457.33,297.79,500,360.4,500c33,0,62.65-12.43,88.21-37A16.58,16.58,0,0,0,458,454.2a5.25,5.25,0,0,1,.86-1.43l31.67-31.67A33.62,33.62,0,0,0,490.54,373.62ZM94.75,25.32a11.52,11.52,0,0,1,15.82,0l71.25,71.25a11.24,11.24,0,0,1,0,15.83l-23.76,23.73L71,49.06Zm55.4,324.56c-57.82-57.82-95-107-113.76-150.25C12.84,145.16,19,101.1,55.17,64.89h0L143,152.77a56.11,56.11,0,0,0,7.13,70.45L276.81,349.87A56.18,56.18,0,0,0,347.26,357l87.88,87.86c-22,22-46.48,32.76-74.73,32.76C304.89,477.62,236.12,435.84,150.16,349.88Zm324.55,55.42L451,429,363.88,342l23.76-23.76a11.54,11.54,0,0,1,15.83,0l71.25,71.25A11.22,11.22,0,0,1,474.71,405.29Z"/></svg>