<?xml version="1.0" encoding="utf-8"?>
<!-- Generator: Adobe Illustrator 21.0.0, SVG Export Plug-In . SVG Version: 6.00 Build 0)  -->
<svg version="1.1" id="Layer_1" xmlns="http://www.w3.org/2000/svg" xmlns:xlink="http://www.w3.org/1999/xlink" x="0px" y="0px"
	 viewBox="0 0 50 33.2" style="enable-background:new 0 0 50 33.2;" xml:space="preserve">
<style type="text/css">
	.st0{fill:#61707E;}
</style>
<title>Artboard 1</title>
<path class="st0" d="M47,0.1H3c-1.7,0-3,1.3-3,3v27c0,1.7,1.3,3,3,3h44c1.7,0,3-1.3,3-3v-27C50,1.4,48.7,0.1,47,0.1z M25,17.9
	L3.7,2.1h42.6L25,17.9z M17.1,14.5L2,29.7V3.3L17.1,14.5z M18.8,15.7l6.2,4.6l6.2-4.6l15.4,15.4H3.4L18.8,15.7z M32.9,14.5L48,3.3
	v26.3L32.9,14.5z"/>
</svg>
