<svg id="Layer_1" data-name="Layer 1" xmlns="http://www.w3.org/2000/svg" viewBox="0 0 410.51 500"><defs><style>.cls-1{fill:#61707e;}</style></defs><title>Artboard 1</title><path class="cls-1" d="M268.95,153.35c0-36.24-29.13-65.72-64.93-65.72s-64.93,29.48-64.93,65.72,29.13,65.73,64.93,65.73S268.95,189.6,268.95,153.35Zm-112,0c0-26.29,21.13-47.67,47.1-47.67s47.1,21.39,47.1,47.67S230,201,204,201,156.92,179.63,156.92,153.35Zm46.83,295.73,6.8-8.07c5.94-7.07,145.42-173.75,145-282.65C355.14,71.05,287.18,0,204,0,120.49,0,52.53,71.06,52.53,158.4,52.53,267.25,191.08,433.93,197,441ZM204,18c73.38,0,133.34,63,133.68,140.4.37,89.08-105.7,227.33-133.88,262.5C175.75,385.75,70.36,247.49,70.36,158.4,70.36,81,130.32,18,204,18Zm161.88,312.4H312.35V348.3H348l35.7,133.85h-357L62.47,348.3H89.24V330.44H44.62L0,500H410.51Z"/></svg>