<?xml version="1.0" encoding="utf-8"?>
<!-- Generator: Adobe Illustrator 22.0.1, SVG Export Plug-In . SVG Version: 6.00 Build 0)  -->
<svg version="1.1" id="Layer_1" xmlns="http://www.w3.org/2000/svg" xmlns:xlink="http://www.w3.org/1999/xlink" x="0px" y="0px"
	 viewBox="0 0 662.5 500" style="enable-background:new 0 0 662.5 500;" xml:space="preserve">
<style type="text/css">
	.st0{fill-rule:evenodd;clip-rule:evenodd;fill:#FFFFFF;}
</style>
<g>
	<g>
		<path class="st0" d="M0,500h587.5V75H0V500z M25,100h537.5v266.9l-88-88.8l-12.9,12.8l-0.1-0.1l-94.7,96.9L197.9,218.8l-14.5,14.5
			l-0.2-0.2L25,394.1V100z M25,429.8L197.7,254l151.6,151.6l-0.2,0.2l17.9,17.5l107.3-109.8l88.2,89V475H25V429.8z M384.2,287.5h6.6
			c32.6,0,59.2-26.5,59.2-59.2v-6.6c0-32.6-26.6-59.2-59.2-59.2h-6.6c-32.7,0-59.2,26.6-59.2,59.2v6.6
			C325,260.9,351.6,287.5,384.2,287.5z M350,221.7c0-18.9,15.3-34.2,34.2-34.2h6.6c18.9,0,34.2,15.3,34.2,34.2v6.6
			c0,18.9-15.3,34.2-34.2,34.2h-6.6c-18.9,0-34.2-15.3-34.2-34.2V221.7z M650,0h-12.5h-575v25v37.5h25V25h550v387.5H600v25h37.5h25
			V0H650z"/>
	</g>
</g>
</svg>
