<svg id="Layer_1" data-name="Layer 1" xmlns="http://www.w3.org/2000/svg" viewBox="0 0 500 500"><defs><style>.cls-1{fill:#61707e;}</style></defs><title>Artboard 1</title><path class="cls-1" d="M400,28.3V9.43a10,10,0,0,0-20,0V28.3H120V9.43a10,10,0,0,0-20,0V28.3H0V500H500V28.3ZM160,481.12H20V377.36H160Zm0-122.64H20V254.71H160Zm0-122.63H20V132.07H160ZM320,481.12H180V377.36H320Zm0-122.64H180V254.71H320Zm0-122.63H180V132.07H320ZM480,481.12H340V377.36H480Zm0-122.64H340V254.71H480Zm0-122.63H340V132.07H480Zm0-122.64H20v-66h80V66a10,10,0,0,0,20,0V47.17H380V66a10,10,0,0,0,20,0V47.17h80ZM371.68,345.11a10.42,10.42,0,0,0,14.14,0l28.55-26.94,28.55,26.94a10.42,10.42,0,0,0,14.14,0,9.06,9.06,0,0,0,0-13.34l-28.55-26.94,28.55-26.94a9.07,9.07,0,0,0,0-13.35,10.42,10.42,0,0,0-14.14,0l-28.55,26.94-28.55-26.94a10.42,10.42,0,0,0-14.14,0,9.07,9.07,0,0,0,0,13.35l28.55,26.94-28.55,26.94A9.06,9.06,0,0,0,371.68,345.11Z"/></svg>