<?xml version="1.0" encoding="utf-8"?>
<!-- Generator: Adobe Illustrator 22.0.1, SVG Export Plug-In . SVG Version: 6.00 Build 0)  -->
<svg version="1.1" id="Layer_1" xmlns="http://www.w3.org/2000/svg" xmlns:xlink="http://www.w3.org/1999/xlink" x="0px" y="0px"
	 viewBox="0 0 445.4 500" style="enable-background:new 0 0 445.4 500;" xml:space="preserve">
<style type="text/css">
	.st0{fill:#61707E;}
</style>
<g>
	<g>
		<path class="st0" d="M445.4,226.2l-64-64.7l0.2-88.6h-9.1h-9.1h-27.3h-9.1h-9.1l0,24.6L221.9,0L0,226.2h25.5l20-20.4v294.1
			l200.3,0.1v-0.1h27.1v0.1l126.9-0.1v-294l20,20.2H445.4z M336.2,91h27.2l-0.1,52.2l-27.2-27.5L336.2,91z M263.5,481.7h-72.7V354.5
			h72.7V481.7z M381.4,481.7h-99.7V336.3h-109v145.4l-109,0V187.3L221.9,25.9l159.5,161.4V481.7z"/>
	</g>
</g>
</svg>
