<svg version="1.2" preserveAspectRatio="none" viewBox="0 0 24 24" class="ng-element" data-id="532e5be75c49ebdfc0e848220eea12af" fill="#61707E" style="opacity: 1; width: 84px; height: 84px; transform: rotate(0deg) translate(14px, 534px) rotate(0deg);"><g><path xmlns:default="http://www.w3.org/2000/svg" id="camera" d="M9.88,11.21c-1.17,1.17-1.17,3.07,0,4.24c1.17,1.17,3.07,1.17,4.24,0c1.17-1.17,1.17-3.07,0-4.24  C12.95,10.04,11.05,10.04,9.88,11.21z M19.33,6H17l-0.53-1.41c-0.15-0.36-0.4-0.67-0.72-0.88c-0.31-0.23-0.69-0.36-1.08-0.37H9.33  C8.94,3.35,8.56,3.48,8.25,3.71C7.93,3.92,7.68,4.23,7.53,4.59L7,6H4.67C3.96,5.99,3.28,6.27,2.79,6.78C2.28,7.27,1.99,7.96,2,8.67  V18c-0.01,0.71,0.27,1.39,0.78,1.88c0.49,0.51,1.17,0.79,1.88,0.78h14.67c1.47,0,2.66-1.19,2.67-2.66V8.67C22,7.2,20.8,6,19.33,6  L19.33,6z M12,18c-2.57-0.01-4.65-2.09-4.66-4.66c0-2.58,2.08-4.66,4.66-4.67c2.57,0.01,4.65,2.09,4.66,4.66  C16.66,15.91,14.58,17.99,12,18L12,18z" fill="#61707E"></path></g></svg>