<svg xmlns="http://www.w3.org/2000/svg" version="1.2" overflow="visible" preserveAspectRatio="none" viewBox="0 0 24 24" width="38" height="38"><g><path xmlns:default="http://www.w3.org/2000/svg" id="pencil-square" d="M7.67,14.75v0.58h1v1h0.58l0.54-0.54l-1.58-1.58L7.67,14.75z M12.52,10.15c-0.09-0.1-0.2-0.1-0.31,0  l-3,3c-0.12,0.12-0.12,0.22,0,0.31c0.12,0.09,0.22,0.09,0.31,0l3-3C12.64,10.34,12.64,10.24,12.52,10.15L12.52,10.15z M6.67,17.33  v-3l5.66-5.66l3,3l-5.66,5.66H6.67z M13,8l1-1c0.39-0.39,1.02-0.39,1.41-0.01c0,0,0,0,0.01,0.01L17,8.63c0.36,0.38,0.36,0.99,0,1.37  l-1,1L13,8z M19.12,4.88C18.56,4.31,17.8,3.99,17,4H7C5.34,4,4,5.34,4,7v10c0,1.66,1.34,3,3,3h10c1.66,0,3-1.34,3-3V7  C20.01,6.2,19.69,5.44,19.12,4.88z" style="fill: rgb(31, 132, 114);" vector-effect="non-scaling-stroke"/></g></svg>