<svg xmlns="http://www.w3.org/2000/svg" version="1.2" overflow="visible" preserveAspectRatio="none" viewBox="-5.008499999999998 0 53 53" width="80" height="80"><g><g xmlns:default="http://www.w3.org/2000/svg">
	<g>
		<path d="M40,0H7C5.3,0,4,1.3,4,3v3H1C0.4,6,0,6.4,0,7s0.4,1,1,1h3v3H1c-0.6,0-1,0.4-1,1c0,0.6,0.4,1,1,1h3v3H1c-0.6,0-1,0.4-1,1    s0.4,1,1,1h3v3H1c-0.6,0-1,0.4-1,1c0,0.6,0.4,1,1,1h3v3H1c-0.6,0-1,0.4-1,1s0.4,1,1,1h3v3H1c-0.6,0-1,0.4-1,1c0,0.6,0.4,1,1,1h3v3    H1c-0.6,0-1,0.4-1,1c0,0.6,0.4,1,1,1h3v3H1c-0.6,0-1,0.4-1,1c0,0.6,0.4,1,1,1h3v3H1c-0.6,0-1,0.4-1,1c0,0.6,0.4,1,1,1h3v2    c0,1.7,1.3,3,3,3h33c1.7,0,3-1.3,3-3V3C43,1.3,41.7,0,40,0z M6,50v-2h3c0.6,0,1-0.4,1-1c0-0.6-0.4-1-1-1H6v-3h3c0.6,0,1-0.4,1-1    c0-0.6-0.4-1-1-1H6v-3h3c0.6,0,1-0.4,1-1c0-0.6-0.4-1-1-1H6v-3h3c0.6,0,1-0.4,1-1c0-0.6-0.4-1-1-1H6v-3h3c0.6,0,1-0.4,1-1    s-0.4-1-1-1H6v-3h3c0.6,0,1-0.4,1-1c0-0.6-0.4-1-1-1H6v-3h3c0.6,0,1-0.4,1-1s-0.4-1-1-1H6v-3h3c0.6,0,1-0.4,1-1c0-0.6-0.4-1-1-1H6    V8h3c0.6,0,1-0.4,1-1S9.6,6,9,6H6V3c0-0.6,0.4-1,1-1h28v49H7C6.4,51,6,50.6,6,50z M41,50c0,0.6-0.4,1-1,1h-3V2h3c0.6,0,1,0.4,1,1    V50z" style="fill: rgb(97, 112, 126);" vector-effect="non-scaling-stroke"/>
	</g>
</g></g></svg>