<?xml version="1.0" standalone="no"?>
<svg version="1.1" preserveAspectRatio="xMidYMid meet" viewBox="0 0 24 24" class="ng-element" data-id="ea0f445b459c4d31a43114ab738f2bb5" style="mix-blend-mode: normal; fill: rgb(255, 255, 255); width: 32px; height: 32px; filter: none;" xmlns="http://www.w3.org/2000/svg"><g><path xmlns:default="http://www.w3.org/2000/svg" id="medkit" d="M15.9,14.57c-0.06,0.06-0.15,0.09-0.24,0.09h-2.33V17c0.01,0.18-0.13,0.32-0.31,0.33c-0.01,0-0.01,0-0.02,0h-2  c-0.18,0.01-0.32-0.13-0.33-0.31c0-0.01,0-0.01,0-0.02v-2.33H8.34c-0.18,0.01-0.33-0.12-0.34-0.3c0-0.01,0-0.03,0-0.04v-2  C7.99,12.15,8.13,12.01,8.31,12c0.01,0,0.02,0,0.03,0h2.33V9.67c-0.01-0.18,0.12-0.33,0.3-0.34c0.01,0,0.02,0,0.03,0h2  c0.18-0.01,0.32,0.13,0.33,0.31c0,0.01,0,0.01,0,0.02V12h2.33c0.18-0.01,0.32,0.13,0.33,0.31c0,0.01,0,0.01,0,0.02v2  C15.99,14.42,15.96,14.51,15.9,14.57z M9.33,6.67V5.34h5.33v1.33H9.33z M5,6.67C4.38,6.66,3.78,6.91,3.35,7.36  C2.91,7.79,2.66,8.38,2.67,9v8.66c-0.01,0.62,0.24,1.22,0.69,1.65C3.79,19.76,4.38,20.01,5,20h0.34V6.67H5z M17.66,6.67H16V5  c0-0.55-0.45-1-1-1H9C8.45,4,8,4.45,8,5v1.67H6.34V20h11.32V6.67L17.66,6.67z M21.33,9C21.32,7.72,20.28,6.68,19,6.67h-0.34V20H19  c1.28-0.01,2.32-1.05,2.33-2.33V9L21.33,9z" style="fill: rgb(255, 255, 255);"/></g></svg>