<svg id="Layer_1" data-name="Layer 1" xmlns="http://www.w3.org/2000/svg" viewBox="0 0 542.98 500"><defs><style>.cls-1{fill:#61707e;fill-rule:evenodd;}</style></defs><title>Artboard 1</title><path class="cls-1" d="M512.73,30.36c-35.94-36.08-91-40.19-127.85-11.23l-.48-.48L372.73,30.36l140,140.56,4.11-4.13h0l.11-.12,7.44-7.47-.47-.47C552.78,121.77,548.68,66.45,512.73,30.36Zm0,117.09-116.52-117c32.58-23,74.16-19.33,105,11.48S536.13,115.19,512.69,147.45ZM271.49,50.08c-122.28,0-221.41,99.12-221.41,221.41A220.77,220.77,0,0,0,117.91,431L63.1,485.78,77.33,500l55.73-55.72a221.35,221.35,0,0,0,282.36-4.56L475.72,500l14.23-14.22-59.84-59.85A220.68,220.68,0,0,0,492.9,271.49C492.9,149.2,393.77,50.08,271.49,50.08Zm0,422.68c-111.17,0-201.28-90.12-201.28-201.28S160.33,70.21,271.49,70.21s201.28,90.12,201.28,201.28S382.66,472.77,271.49,472.77Zm0-181.15H170.85v20.12H291.62V130.58H271.49Zm-112.91-273-.48.48C121.29-9.83,66.19-5.73,30.25,30.36S-9.8,121.77,19,158.73l-.47.47L26,166.66l.12.13h0l4.11,4.13,140-140.56ZM30.29,147.45C6.85,115.19,10.84,72.9,41.81,41.94s72.42-34.48,105-11.48Z"/></svg>