<?xml version="1.0" encoding="utf-8"?>
<!-- Generator: Adobe Illustrator 21.0.0, SVG Export Plug-In . SVG Version: 6.00 Build 0)  -->
<svg version="1.1" id="Layer_1" xmlns="http://www.w3.org/2000/svg" xmlns:xlink="http://www.w3.org/1999/xlink" x="0px" y="0px"
	 viewBox="0 0 51 41" style="enable-background:new 0 0 51 41;" xml:space="preserve">
<style type="text/css">
	.st0{fill:#61707E;}
</style>
<title>Artboard 1</title>
<path class="st0" d="M31,23h-8v8h8V23z M29,29h-4v-4h4V29z M41,23h-8v8h8V23z M39,29h-4v-4h4V29z M47,6V0H4v6H0v14h4v21h43V20h4V6
	H47z M6,2h39v4H6V2z M19,39h-7V25h7V39z M45,39H21V23H10v16H6V20h39V39z M49,18H2V8h47V18z"/>
</svg>
