<?xml version="1.0" encoding="utf-8"?>
<!-- Generator: Adobe Illustrator 22.0.1, SVG Export Plug-In . SVG Version: 6.00 Build 0)  -->
<svg version="1.1" id="Layer_1" xmlns="http://www.w3.org/2000/svg" xmlns:xlink="http://www.w3.org/1999/xlink" x="0px" y="0px"
	 viewBox="0 0 519.2 500" style="enable-background:new 0 0 519.2 500;" xml:space="preserve">
<style type="text/css">
	.st0{fill:#FFFFFF;}
</style>
<g>
	<g>
		<path class="st0" d="M259.6,0C116.5,0,0,116.5,0,259.6c0,30.9,5.4,61.1,16,89.9c1.4,3.9,5.1,6.3,9,6.3c1.1,0,2.2-0.2,3.3-0.6
			c5-1.8,7.5-7.4,5.7-12.4c-9.8-26.6-14.8-54.6-14.8-83.2c0-132.5,107.8-240.4,240.4-240.4C392.2,19.2,500,127.1,500,259.6
			c0,5.3,4.3,9.6,9.6,9.6c5.3,0,9.6-4.3,9.6-9.6C519.2,116.5,402.8,0,259.6,0z M472.7,307.6c5.2-0.9,8.8-5.8,7.9-11.1l-9.6-57.7
			C450.8,117.6,373.8,48.1,259.6,48.1C143,48.1,48.1,143,48.1,259.6c0,17.2,2.9,32.2,5.8,46.7c5.7,29.4,10.3,52.5-13.3,82
			c-3.3,4.2-2.6,10.2,1.5,13.5c1.8,1.4,3.9,2.1,6,2.1c2.8,0,5.6-1.2,7.5-3.6c29.1-36.4,23-67.6,17.1-97.7c-2.7-13.6-5.4-27.6-5.4-43
			c0-106,86.3-192.3,192.3-192.3c105.3,0,173.7,62,192.4,174.7l9.6,57.7C462.5,304.9,467.5,308.5,472.7,307.6z M471.2,326.9
			c-5.3,0-9.6,4.3-9.6,9.6V375c0,5.3,4.3,9.6,9.6,9.6c5.3,0,9.6-4.3,9.6-9.6v-38.5C480.8,331.2,476.5,326.9,471.2,326.9z
			 M118.6,295.6c-1.7-12.9-3.2-25.1-3.2-36c0-79.5,64.7-144.2,144.2-144.2c18.7,0,36.9,3.5,54.1,10.5c4.9,2,10.5-0.4,12.5-5.3
			c2-4.9-0.4-10.5-5.3-12.5c-19.5-7.9-40.1-11.9-61.3-11.9c-90.1,0-163.5,73.3-163.5,163.5c0,12.1,1.7,24.9,3.4,38.5
			c5.3,40.8,11.2,87.1-29.4,127.8c-3.8,3.8-3.8,9.8,0,13.6c1.9,1.9,4.3,2.8,6.8,2.8c2.5,0,4.9-0.9,6.8-2.8
			C131.1,392.1,124.2,338.6,118.6,295.6z M165.3,300.1c-0.9-15.2-1.8-29.5-1.8-40.5c0-53,43.1-96.2,96.2-96.2
			c39.9,0,75.1,24,89.6,61.2c1.9,4.9,7.5,7.4,12.5,5.4c4.9-1.9,7.4-7.5,5.5-12.5c-17.4-44.6-59.6-73.4-107.5-73.4
			c-63.6,0-115.4,51.8-115.4,115.4c0,11.7,0.9,26.3,1.9,41.7c2.1,33.4,4.7,74.9-1.6,100.2c-1.3,5.1,1.8,10.4,7,11.7
			c0.8,0.2,1.6,0.3,2.3,0.3c4.3,0,8.2-2.9,9.3-7.3C170.2,378,167.6,336.7,165.3,300.1z M149.6,434.3c-4.4-2.9-10.4-1.7-13.3,2.7
			L117,465.8c-2.9,4.4-1.8,10.4,2.7,13.3c1.6,1.1,3.5,1.6,5.3,1.6c3.1,0,6.2-1.5,8-4.3l19.2-28.8C155.2,443.2,154,437.3,149.6,434.3
			z M358.6,252.8c-3.5,3.5-3.7,9-0.7,12.8c0.9,1.5,7.5,15,7.5,70.9c0,56-18.8,141.3-19,142.1c-1.2,5.2,2.1,10.3,7.3,11.5
			c0.7,0.1,1.4,0.2,2.1,0.2c4.4,0,8.4-3,9.4-7.5c0.8-3.6,19.5-88.2,19.5-146.3c0-64.3-8.7-80-12.4-83.7
			C368.4,249.1,362.3,249.1,358.6,252.8z M360.7,126.4c-4.5-2.7-10.4-1.2-13.1,3.2c-2.8,4.5-1.3,10.4,3.2,13.2
			c0.9,0.6,90,59,53.2,298c-0.8,5.3,2.8,10.2,8,11c0.5,0.1,1,0.1,1.5,0.1c4.7,0,8.8-3.4,9.5-8.2C462,190.3,364.9,128.9,360.7,126.4z
			 M317.3,365.4c-5.3,0-9.6,4.3-9.6,9.6c0,55.4-18.6,111.8-18.7,112.3c-1.7,5.1,1.1,10.5,6.1,12.2c1,0.3,2,0.5,3,0.5
			c4,0,7.8-2.5,9.1-6.6c0.8-2.4,19.7-59.9,19.7-118.4C326.9,369.7,322.6,365.4,317.3,365.4z M259.6,192.3
			c-37.1,0-67.3,30.2-67.3,67.3c0,6.6,1.1,15.7,2.4,27.1c5.3,45.8,15.2,131.1-29.6,198.3c-2.9,4.4-1.8,10.4,2.7,13.3
			c1.6,1.1,3.5,1.6,5.3,1.6c3.1,0,6.2-1.5,8-4.3c48.7-73.1,38.3-162.9,32.7-211.2c-1.2-10.4-2.3-19.5-2.3-24.9
			c0-26.5,21.6-48.1,48.1-48.1c29.5,0,44.4,26.8,48.2,49.7c2.3,13.5,2.4,35.5,0.5,65.1c-0.3,5.3,3.7,9.9,9,10.2
			c5.4,0.3,9.9-3.7,10.2-9c2-31.1,1.7-54.5-0.8-69.5C320.2,218.7,293.2,192.3,259.6,192.3z M256.6,240.9c-5,1.7-7.8,7.1-6.1,12.1
			c0.2,0.6,18.1,57.1-0.3,158.7c-0.9,5.2,2.5,10.2,7.7,11.2c0.6,0.1,1.2,0.2,1.7,0.2c4.6,0,8.6-3.2,9.4-7.9
			c19.4-107,0.5-165.8-0.3-168.2C267.1,241.9,261.7,239.3,256.6,240.9z M252.3,442.6c-5.1-1.3-10.4,1.8-11.7,7l-9.2,36.6
			c-1.3,5.2,1.8,10.4,7,11.7c0.8,0.2,1.6,0.3,2.4,0.3c4.3,0,8.2-2.9,9.3-7.3l9.2-36.6C260.6,449.1,257.5,443.9,252.3,442.6z"/>
	</g>
</g>
</svg>
