<svg xmlns="http://www.w3.org/2000/svg" version="1.2" overflow="visible" preserveAspectRatio="none" viewBox="-3 0 50 50" width="80" height="80"><g>
	<g>
		<path d="M35,25V12.9C35,5.8,29.2,0,22.1,0h-0.2C14.8,0,9,5.8,9,12.9V25H0v25h44V25H35z M11,12.9C11,6.9,15.9,2,21.9,2h0.2    C28.1,2,33,6.9,33,12.9V25H11V12.9z M42,48H2V27h40V48z M22,39L22,39c2.3,0,4-1.8,4-4c0-2.2-1.8-4-4-4c-2.2,0-4,1.8-4,4    C18,37.2,19.8,39,22,39z M22,33c1.1,0,2,0.9,2,2c0,1.1-0.9,2-2,2H22c-1.1,0-2-0.9-2-2C20,33.9,20.9,33,22,33z" style="fill: rgb(97, 112, 126);" vector-effect="non-scaling-stroke"/>
	</g>
</g><g/></svg>