<svg id="Layer_1" data-name="Layer 1" xmlns="http://www.w3.org/2000/svg" viewBox="0 0 434.97 500"><defs><style>.cls-1{fill:#61707e;}</style></defs><title>Artboard 1</title><path class="cls-1" d="M281.75,296.49H145.33C62.87,296.49,0,381.6,0,485.06,0,491.71,0,500,8.72,500H426.25c8.72,0,8.72-8.29,8.72-14.94C435,381.6,364.21,296.49,281.75,296.49Zm-263.13,185C19.43,388.25,75.52,315,148.15,315H277.67c72.63,0,138,73.26,138.78,166.53ZM211.46,263.63C284,263.63,343,204.48,343,131.81S284,0,211.46,0,79.88,59.13,79.88,131.81,138.91,263.63,211.46,263.63Zm0-245.24c62.43,0,113.21,50.88,113.21,113.43a113.93,113.93,0,0,1-1.43,18c-63.59-4.45-80.24-48.27-80.94-50.19L235.76,81l-10,17C201.49,139.06,121.48,124.17,99,119,105.32,62.48,153.34,18.39,211.46,18.39ZM232.11,119.6C243,136.54,268,163.41,318.78,167.93a113.42,113.42,0,0,1-107.33,77.28c-60.43,0-110-47.67-113.06-107.44C125.21,143.61,197,155,232.11,119.6Z" style="fill: rgb(255, 255, 255);" /></svg>