<svg id="Layer_1" data-name="Layer 1" xmlns="http://www.w3.org/2000/svg" viewBox="0 0 24 24"><defs><style>.cls-1{fill:#61707e;}</style></defs><title>Artboard 1</title><path xmlns:default="http://www.w3.org/2000/svg" id="floppy-o" d="M8,18.66v-4h8v4H8z M17.33,18.66v-4.33c0-0.55-0.45-1-1-1H7.67c-0.55,0-1,0.45-1,1v4.33H5.34V5.34h1.33v4.33  c0,0.55,0.45,1,1,1h6c0.55,0,1-0.45,1-1V5.34c0.28,0.03,0.54,0.14,0.76,0.31l2.93,2.93c0.09,0.11,0.16,0.23,0.21,0.36  c0.06,0.13,0.09,0.26,0.1,0.4v9.33L17.33,18.66L17.33,18.66z M13.23,9.23c-0.06,0.06-0.14,0.1-0.23,0.1h-2  C10.82,9.32,10.68,9.18,10.67,9V5.67c0.01-0.18,0.15-0.32,0.33-0.33h2c0.18,0.01,0.32,0.15,0.33,0.33V9c0,0.09-0.03,0.18-0.1,0.24  V9.23z M20,9.33c-0.01-0.32-0.08-0.63-0.21-0.92c-0.11-0.29-0.28-0.56-0.5-0.79l-2.92-2.91c-0.23-0.22-0.5-0.39-0.79-0.5  c-0.29-0.13-0.6-0.2-0.91-0.21H5C4.45,4,4,4.45,4,5v14c0,0.55,0.45,1,1,1h14c0.55,0,1-0.45,1-1V9.33L20,9.33z" style="fill: rgb(255, 255, 255);"></path></svg>