<?xml version="1.0" standalone="no"?>
<svg version="1.1" preserveAspectRatio="xMidYMid meet" viewBox="0 -1.0076775431861797 50 50" class="ng-element" data-id="931e40524d2a4b6d88db208efac98c1c" style="mix-blend-mode: normal; fill: rgb(97, 112, 126); width: 80px; height: 80px; filter: none;" xmlns="http://www.w3.org/2000/svg"><g><g xmlns:default="http://www.w3.org/2000/svg">
	<g>
		<path d="M22.9,33.1l-8.4-7.2l-1.3,1.5l10.3,8.8l12.6-22.4l-1.7-1L22.9,33.1z M48,46h-5v2h7v-7h-2V46z M19,48h12v-2H19V48z M2,41H0    v7h7v-2H2V41z M2,18H0v12h2V18z M0,7h2V2h5V0H0V7z M31,0H19v2h12V0z M43,0v2h5v5h2V0H43z M48,30h2V18h-2V30z" style="fill: rgb(97, 112, 126);"/>
	</g>
</g></g></svg>