<?xml version="1.0" encoding="utf-8"?>
<!-- Generator: Adobe Illustrator 22.0.1, SVG Export Plug-In . SVG Version: 6.00 Build 0)  -->
<svg version="1.1" id="Layer_1" xmlns="http://www.w3.org/2000/svg" xmlns:xlink="http://www.w3.org/1999/xlink" x="0px" y="0px"
	 viewBox="0 0 538.5 500" style="enable-background:new 0 0 538.5 500;" xml:space="preserve">
<style type="text/css">
	.st0{fill:#61707E;}
</style>
<g>
	<g>
		<path class="st0" d="M471.2,96.2h-76.9V67.3C394.2,30.2,364,0,326.9,0h-125c-37.1,0-67.3,30.2-67.3,67.3v28.8H67.3
			C30.2,96.2,0,126.3,0,163.5v269.2C0,469.8,30.2,500,67.3,500h403.8c37.1,0,67.3-30.2,67.3-67.3V163.5
			C538.5,126.3,508.3,96.2,471.2,96.2z M153.8,67.3c0-26.5,21.6-48.1,48.1-48.1h125c26.5,0,48.1,21.6,48.1,48.1v28.8H153.8V67.3z
			 M519.2,432.7c0,26.5-21.6,48.1-48.1,48.1H67.3c-26.5,0-48.1-21.6-48.1-48.1V163.5c0-26.5,21.6-48.1,48.1-48.1h67.3h259.6h76.9
			c26.5,0,48.1,21.6,48.1,48.1V432.7z M451.9,182.7H86.5c-5.3,0-9.6,4.3-9.6,9.6c0,5.3,4.3,9.6,9.6,9.6h365.4c5.3,0,9.6-4.3,9.6-9.6
			C461.5,187,457.2,182.7,451.9,182.7z M451.9,288.5H86.5c-5.3,0-9.6,4.3-9.6,9.6c0,5.3,4.3,9.6,9.6,9.6h365.4
			c5.3,0,9.6-4.3,9.6-9.6C461.5,292.8,457.2,288.5,451.9,288.5z M451.9,394.2H86.5c-5.3,0-9.6,4.3-9.6,9.6c0,5.3,4.3,9.6,9.6,9.6
			h365.4c5.3,0,9.6-4.3,9.6-9.6C461.5,398.5,457.2,394.2,451.9,394.2z"/>
	</g>
</g>
</svg>
